<svg width="24" height="24" viewBox="0 0 24 24" fill="none" xmlns="http://www.w3.org/2000/svg">
<rect width="24" height="24" fill="#2A2C31"/>
<g id="General_Icons">
<rect width="1560" height="2639" transform="translate(-1030 -804)" fill="white"/>
<g id="Group 1312315341">
<g id="Frame 1312315337">
<g id="system/icon-close">
<path id="Vector" fill-rule="evenodd" clip-rule="evenodd" d="M5.30491 4.69606C5.06277 4.79141 4.86392 4.97212 4.74591 5.20406C4.64591 5.39406 4.63391 5.45206 4.64991 5.68006C4.65991 5.82306 4.69891 6.00306 4.73791 6.08006C4.77691 6.15706 6.10691 7.52006 7.69391 9.11006L10.5789 12.0001L7.69391 14.8901C6.10691 16.4791 4.77691 17.8421 4.73891 17.9181C4.69002 18.0401 4.66001 18.1689 4.64991 18.3001C4.63795 18.4422 4.65738 18.5852 4.70683 18.719C4.75627 18.8528 4.83452 18.974 4.93604 19.0742C5.03756 19.1744 5.15985 19.251 5.29428 19.2987C5.4287 19.3464 5.57196 19.3639 5.71391 19.3501C5.84191 19.3381 6.00791 19.2981 6.08391 19.2601C6.15891 19.2231 7.51991 17.8931 9.10991 16.3061L11.9999 13.4211L14.8899 16.3061C16.4799 17.8931 17.8419 19.2231 17.9179 19.2611C17.9939 19.2991 18.1659 19.3391 18.2999 19.3501C18.7339 19.3851 19.1009 19.1541 19.2909 18.7251C19.3849 18.5111 19.3709 18.1381 19.2609 17.9181C19.2229 17.8421 17.8929 16.4791 16.3059 14.8901L13.4209 12.0001L16.3059 9.11006C17.8929 7.52006 19.2219 6.15906 19.2589 6.08506C19.4879 5.63006 19.3039 5.03906 18.8519 4.77306C18.6869 4.67606 18.6179 4.66006 18.3599 4.66106C18.1479 4.66106 18.0189 4.68306 17.9199 4.73506C17.8429 4.77506 16.4799 6.10706 14.8899 7.69406L11.9999 10.5791L9.10991 7.69406C7.51991 6.10706 6.15791 4.77706 6.08191 4.73906C5.89491 4.64506 5.50091 4.62306 5.30491 4.69606Z" fill="#101828"/>
</g>
</g>
</g>
</g>
</svg>
