<svg width="24" height="24" viewBox="0 0 24 24" fill="none" xmlns="http://www.w3.org/2000/svg">
<path fill-rule="evenodd" clip-rule="evenodd" d="M7.64305 3.06909C7.5155 3.1235 7.39919 3.20115 7.30005 3.29809C7.05205 3.54609 7.00005 3.74009 7.00005 4.42709V5.00009H5.92705C5.33005 5.00009 4.75005 5.01909 4.61705 5.04309C3.84905 5.18409 3.18405 5.84909 3.04305 6.61709C2.98305 6.95009 2.98305 19.0501 3.04305 19.3831C3.18405 20.1511 3.84905 20.8161 4.61705 20.9571C4.95105 21.0181 19.049 21.0181 19.383 20.9571C20.151 20.8161 20.816 20.1511 20.957 19.3831C21.017 19.0501 21.017 6.95009 20.957 6.61709C20.816 5.84909 20.151 5.18409 19.383 5.04309C19.25 5.01909 18.67 5.00009 18.073 5.00009H17V4.42709C17 3.74109 16.948 3.54609 16.701 3.29909C16.6095 3.20615 16.5004 3.13234 16.38 3.08196C16.2597 3.03158 16.1305 3.00564 16 3.00564C15.8696 3.00564 15.7404 3.03158 15.6201 3.08196C15.4997 3.13234 15.3906 3.20615 15.299 3.29909C15.052 3.54609 15 3.74109 15 4.42709V5.00009H9.00005V4.42709C9.00005 3.74109 8.94805 3.54609 8.70105 3.29909C8.56552 3.16302 8.39361 3.06895 8.20595 3.02815C8.01828 2.98735 7.82283 3.00157 7.64305 3.06909ZM19 8.00009V9.00009H5.00005V7.00009H19V8.00009ZM19 15.0001V19.0001H5.00005V11.0001H19V15.0001ZM7.64305 12.0661C7.28805 12.1971 7.00005 12.6151 7.00005 13.0001C7.00005 13.4071 7.29205 13.8111 7.67905 13.9401C7.91123 14.0215 8.16543 14.0136 8.39208 13.9179C8.61874 13.8221 8.80161 13.6453 8.90505 13.4221C9.13705 12.9231 8.93305 12.3551 8.42705 12.0931C8.24905 12.0011 7.85705 11.9881 7.64305 12.0661ZM11.643 12.0661C11.288 12.1971 11 12.6151 11 13.0001C11 13.4071 11.292 13.8111 11.679 13.9401C11.9112 14.0215 12.1654 14.0136 12.3921 13.9179C12.6187 13.8221 12.8016 13.6453 12.905 13.4221C13.137 12.9231 12.933 12.3551 12.427 12.0931C12.249 12.0011 11.857 11.9881 11.643 12.0661ZM15.643 12.0661C15.288 12.1971 15 12.6151 15 13.0001C15 13.4071 15.292 13.8111 15.679 13.9401C15.9112 14.0215 16.1654 14.0136 16.3921 13.9179C16.6187 13.8221 16.8016 13.6453 16.905 13.4221C17.137 12.9231 16.933 12.3551 16.427 12.0931C16.249 12.0011 15.857 11.9881 15.643 12.0661ZM7.64305 15.0661C7.28805 15.1971 7.00005 15.6151 7.00005 16.0001C7.00005 16.4071 7.29205 16.8111 7.67905 16.9401C7.91123 17.0215 8.16543 17.0136 8.39208 16.9179C8.61874 16.8221 8.80161 16.6454 8.90505 16.4221C9.13705 15.9231 8.93305 15.3551 8.42705 15.0931C8.24905 15.0011 7.85705 14.9881 7.64305 15.0661ZM11.643 15.0661C11.288 15.1971 11 15.6151 11 16.0001C11 16.4071 11.292 16.8111 11.679 16.9401C11.9112 17.0215 12.1654 17.0136 12.3921 16.9179C12.6187 16.8221 12.8016 16.6454 12.905 16.4221C13.137 15.9231 12.933 15.3551 12.427 15.0931C12.249 15.0011 11.857 14.9881 11.643 15.0661ZM15.643 15.0661C15.288 15.1971 15 15.6151 15 16.0001C15 16.4071 15.292 16.8111 15.679 16.9401C15.9112 17.0215 16.1654 17.0136 16.3921 16.9179C16.6187 16.8221 16.8016 16.6454 16.905 16.4221C17.137 15.9231 16.933 15.3551 16.427 15.0931C16.249 15.0011 15.857 14.9881 15.643 15.0661Z" fill="#101828"/>
</svg>
