<svg width="24" height="24" viewBox="0 0 24 24" fill="none" xmlns="http://www.w3.org/2000/svg">
<path d="M19 3C19.7956 3 20.5587 3.31607 21.1213 3.87868C21.6839 4.44129 22 5.20435 22 6V18C22 18.7956 21.6839 19.5587 21.1213 20.1213C20.5587 20.6839 19.7956 21 19 21H8.10896C7.59997 21.0002 7.09931 20.8708 6.65409 20.6242C6.20887 20.3775 5.83372 20.0216 5.56396 19.59L1.48296 13.06C1.28429 12.7421 1.17896 12.3748 1.17896 12C1.17896 11.6252 1.28429 11.2579 1.48296 10.94L5.56396 4.41C5.83372 3.97838 6.20887 3.62249 6.65409 3.37583C7.09931 3.12916 7.59997 2.99983 8.10896 3H19ZM16.536 8.465C16.3484 8.27753 16.0941 8.17221 15.829 8.17221C15.5638 8.17221 15.3095 8.27753 15.122 8.465L12.999 10.585L10.879 8.465C10.7861 8.37209 10.6759 8.29838 10.5545 8.24807C10.4332 8.19776 10.3032 8.17184 10.1718 8.1718C10.0405 8.17175 9.91039 8.19758 9.78903 8.2478C9.66766 8.29802 9.55737 8.37166 9.46446 8.4645C9.37155 8.55734 9.29784 8.66758 9.24753 8.78891C9.19722 8.91025 9.1713 9.0403 9.17126 9.17165C9.17121 9.30299 9.19704 9.43307 9.24726 9.55443C9.29748 9.6758 9.37112 9.78609 9.46396 9.879L11.585 12L9.46496 14.121C9.28717 14.3103 9.19001 14.5614 9.19405 14.8211C9.19808 15.0808 9.30299 15.3287 9.48657 15.5124C9.67015 15.6961 9.91801 15.8012 10.1777 15.8054C10.4374 15.8096 10.6885 15.7127 10.878 15.535L13 13.415L15.123 15.535C15.2152 15.6305 15.3256 15.7067 15.4476 15.7591C15.5696 15.8115 15.7008 15.8391 15.8336 15.8403C15.9663 15.8414 16.098 15.8161 16.2209 15.7658C16.3438 15.7155 16.4555 15.6413 16.5494 15.5474C16.6432 15.4535 16.7175 15.3419 16.7678 15.219C16.8181 15.0961 16.8434 14.9644 16.8422 14.8316C16.8411 14.6988 16.8135 14.5676 16.7611 14.4456C16.7087 14.3236 16.6325 14.2132 16.537 14.121L14.415 12L16.535 9.879C16.7224 9.69147 16.8277 9.43716 16.8277 9.172C16.8277 8.90684 16.7234 8.65253 16.536 8.465Z" fill="#101828"/>
</svg>
