<svg width="24" height="24" viewBox="0 0 24 24" fill="none" xmlns="http://www.w3.org/2000/svg">
<path fill-rule="evenodd" clip-rule="evenodd" d="M19 2C19.2086 2.00008 19.4119 2.06539 19.5816 2.18679C19.7512 2.30819 19.8786 2.47959 19.946 2.677L20.296 3.703L21.323 4.053C21.5205 4.12035 21.6921 4.24783 21.8135 4.41757C21.935 4.5873 22.0003 4.79078 22.0003 4.9995C22.0003 5.20822 21.935 5.4117 21.8135 5.58143C21.6921 5.75117 21.5205 5.87865 21.323 5.946L20.297 6.296L19.947 7.323C19.8796 7.52055 19.7522 7.69207 19.5824 7.81353C19.4127 7.93499 19.2092 8.0003 19.0005 8.0003C18.7918 8.0003 18.5883 7.93499 18.4185 7.81353C18.2488 7.69207 18.1213 7.52055 18.054 7.323L17.704 6.297L16.677 5.947C16.4794 5.87965 16.3079 5.75217 16.1865 5.58243C16.065 5.4127 15.9997 5.20922 15.9997 5.0005C15.9997 4.79179 16.065 4.5883 16.1865 4.41857C16.3079 4.24883 16.4794 4.12135 16.677 4.054L17.703 3.704L18.053 2.677C18.1204 2.47943 18.248 2.30791 18.4178 2.1865C18.5876 2.06509 18.7912 1.99987 19 2ZM9.10698 5.448C9.72398 3.643 12.277 3.643 12.893 5.448L13.699 7.808C13.8965 8.38638 14.2238 8.91182 14.656 9.34398C15.0882 9.77614 15.6136 10.1035 16.192 10.301L18.552 11.107C20.357 11.724 20.357 14.277 18.552 14.893L16.192 15.699C15.6136 15.8965 15.0882 16.2239 14.656 16.656C14.2238 17.0882 13.8965 17.6136 13.699 18.192L12.893 20.552C12.276 22.357 9.72298 22.357 9.10698 20.552L8.30098 18.192C8.10361 17.6137 7.77638 17.0884 7.3444 16.6562C6.91242 16.224 6.38718 15.8966 5.80898 15.699L3.44898 14.893C1.64298 14.276 1.64298 11.723 3.44898 11.107L5.80898 10.301C6.38678 10.1035 6.91169 9.77627 7.34347 9.34449C7.77526 8.91271 8.10245 8.3878 8.29998 7.81L9.10698 5.448Z" fill="#101828"/>
</svg>
